# xmcd CD database file
# Copyright (C) 1997 Ti Kan
# 
# Track frame offsets:
#     150
#     19065
#     29525
#     39375
#     52977
#     65270
#     77890
#     91317
#     101197
#     111532
#     126140
#     136090
#     146340
#     162192
#     182360
#     193772
#     205062
#     215647
# 
# Disc length: 2952 seconds
# 
# Revision: 1
# Processed by: cddbd v1.4b41PL1 Copyright (c) Steve Scherf et al.
# Submitted via: DiscPlay 4.0.3
# 
DISCID=fb0b8612
DTITLE=Joel Reese - Joel Reese
DYEAR=1900
DGENRE=
TTITLE0=Off the Coast of California
TTITLE1=It Don't Take a Genius
TTITLE2=A Real Top Hand
TTITLE3=Dust Sevils
TTITLE4=Cowboys Ain't Supposed to Cry
TTITLE5=Signs of Life
TTITLE6=Like THere's No Tommorrow
TTITLE7=Let's Play
TTITLE8=I Won't Forget
TTITLE9=The Farm
TTITLE10=I'd Come Back to Me
TTITLE11=I Really Don't Want to Know
TTITLE12=Zelta My Angel
TTITLE13=Silver Sours
TTITLE14=Love Goes the Extra Mile
TTITLE15=A Whole Lot of Animals
TTITLE16=Falling in Place
TTITLE17=Off the Coast (Reprise)
EXTD=
EXTT0=
EXTT1=
EXTT2=
EXTT3=
EXTT4=
EXTT5=
EXTT6=
EXTT7=
EXTT8=
EXTT9=
EXTT10=
EXTT11=
EXTT12=
EXTT13=
EXTT14=
EXTT15=
EXTT16=
EXTT17=
PLAYORDER=
